<svg version="1.1" id="Layer_1" xmlns="http://www.w3.org/2000/svg" xmlns:xlink="http://www.w3.org/1999/xlink" x="0px" y="0px" viewBox="0 0 500 500" style="width: 151px;" xml:space="preserve" data-imageid="chatting-42" imageName="Chatting" class="illustrations_image">
<style type="text/css">
	.st0_chatting-42{fill:#FFFFFF;}
	.st1_chatting-42{fill:#231F20;}
	.st2_chatting-42{fill:#68E1FD;}
	.st3_chatting-42{fill:none;}
	.st4_chatting-42{fill:#D1D3D4;}
</style>
<g id="hands_chatting-42">
	<path class="st0_chatting-42" d="M406.7,380.4c0,0-8.9-17.8-9.4-29.1s-8.4-71.6-14.8-91.9s-32-48-56.2-64.6c-5.3-3.6-29.6-17.3-29.6-17.3&#10;&#9;&#9;l-4,71.5c0,0,35,41.4,37,59.2s-8.4,49.3-1.6,61.1c12,21.1,4.9,10.5,19.2,31.3L406.7,380.4z"/>
	<path class="st1_chatting-42" d="M347.4,401.5c-0.3,0-0.5-0.1-0.6-0.3l-2.8-4.1c-7.1-10.3-7.1-10.3-9.6-15c-1.2-2.3-3.1-5.8-6.8-12.3&#10;&#9;&#9;c-4-7.1-2.2-20.4-0.3-34.4c1.3-9.6,2.7-19.6,1.8-27c-1.9-17.3-36.5-58.3-36.8-58.8c-0.1-0.2-0.2-0.4-0.2-0.6l4-71.4&#10;&#9;&#9;c0-0.3,0.2-0.5,0.4-0.6c0.2-0.1,0.5-0.1,0.8,0c1,0.6,24.4,13.7,29.6,17.3c22.3,15.3,49.6,43.3,56.5,65&#10;&#9;&#9;c6.5,20.4,14.3,80.3,14.8,92.1c0.5,11,9.2,28.6,9.3,28.8c0.1,0.2,0.1,0.4,0,0.6c-0.1,0.2-0.3,0.4-0.5,0.4l-59.3,20.3&#10;&#9;&#9;C347.6,401.5,347.5,401.5,347.4,401.5z M293.6,248.8c3.1,3.7,35,42.1,37,59.4c0.8,7.6-0.5,17.6-1.9,27.4&#10;&#9;&#9;c-1.8,13.2-3.6,26.8,0.1,33.5c3.7,6.5,5.6,10,6.8,12.3c2.5,4.6,2.5,4.6,9.5,14.9l2.5,3.6l57.9-19.9c-1.8-3.6-8.6-18.5-9-28.6&#10;&#9;&#9;c-0.5-11.4-8.5-71.8-14.8-91.6c-6-18.8-30-46.4-55.9-64.2c-4.5-3.1-23.6-13.9-28.4-16.6L293.6,248.8z"/>
	<path class="st0_chatting-42" d="M93.3,380.4c0,0,8.9-17.8,9.4-29.1s8.4-71.6,14.8-91.9s32-48,56.2-64.6c5.3-3.6,29.6-17.3,29.6-17.3l3.9,71.5&#10;&#9;&#9;c0,0-35,41.4-37,59.2s8.4,49.3,1.6,61.1c-12,21.1-4.9,10.5-19.2,31.3L93.3,380.4z"/>
	<path class="st1_chatting-42" d="M152.6,401.5c-0.1,0-0.2,0-0.2,0l-59.3-20.4c-0.2-0.1-0.4-0.2-0.5-0.4c-0.1-0.2-0.1-0.4,0-0.6&#10;&#9;&#9;c0.1-0.2,8.8-17.7,9.3-28.8c0.5-11.8,8.4-71.7,14.8-92.1c6.9-21.7,34.2-49.7,56.5-65c5.2-3.6,28.6-16.7,29.6-17.3&#10;&#9;&#9;c0.2-0.1,0.5-0.1,0.8,0c0.2,0.1,0.4,0.4,0.4,0.6l4,71.4c0,0.2-0.1,0.4-0.2,0.6c-0.3,0.4-34.9,41.4-36.8,58.7&#10;&#9;&#9;c-0.8,7.4,0.5,17.3,1.8,27c1.9,14.1,3.7,27.3-0.3,34.4c-3.7,6.5-5.6,10-6.8,12.3c-2.5,4.7-2.5,4.7-9.6,15l-2.8,4.1&#10;&#9;&#9;C153.1,401.3,152.9,401.5,152.6,401.5z M94.4,379.9l57.9,19.9l2.5-3.6c7-10.2,7-10.2,9.6-14.9c1.2-2.3,3.1-5.8,6.8-12.3&#10;&#9;&#9;c3.8-6.6,1.9-20.3,0.1-33.5c-1.3-9.7-2.7-19.8-1.9-27.4c1.9-17.3,33.8-55.6,37-59.4l-3.9-69.9c-4.8,2.7-23.9,13.5-28.4,16.6&#10;&#9;&#9;c-25.9,17.8-49.9,45.4-55.9,64.2c-6.3,19.8-14.3,80.3-14.8,91.6C103,361.5,96.2,376.3,94.4,379.9z"/>
	<path class="st2_chatting-42 targetColor" d="M166.9,425.7c0.8-3.5,1.3-7.1,1.4-10.7c0-4.5-4.7-11.1-4.7-11.1l2.9-14.6c0,0-73.6-28.7-76.6-24.8&#10;&#9;&#9;S81,389.4,81,389.4s-9.4,5.6-12.3,11.4c-1.7,3.3-4.7,15.4-7,25L166.9,425.7z" style="fill: rgb(231, 84, 128);"/>
	<line class="st3_chatting-42" x1="88.9" y1="389.4" x2="156" y2="409.6"/>
	<path class="st1_chatting-42" d="M156,410.4c-0.1,0-0.2,0-0.2,0l-67-20.3c-0.4-0.1-0.7-0.5-0.5-1c0,0,0,0,0,0c0.1-0.4,0.6-0.7,1-0.5&#10;&#9;&#9;c0,0,0,0,0,0l67,20.3c0.4,0.1,0.6,0.6,0.5,1C156.6,410.2,156.4,410.4,156,410.4L156,410.4z"/>
	<path class="st2_chatting-42 targetColor" d="M333.1,425.7h105.2c-2.2-9.6-5.3-21.7-7-25c-3-5.8-12.3-11.4-12.3-11.4s-5.9-20.8-8.9-24.8&#10;&#9;&#9;s-76.6,24.8-76.6,24.8l2.9,14.6c0,0-4.6,6.5-4.7,11.1C331.9,418.7,332.3,422.2,333.1,425.7z" style="fill: rgb(231, 84, 128);"/>
	<path class="st0_chatting-42" d="M406.7,391.4l-60.4,18.3"/>
	<path class="st1_chatting-42" d="M346.2,410.4c-0.4,0-0.8-0.4-0.8-0.8c0-0.3,0.2-0.6,0.5-0.7l60.4-18.3c0.4-0.1,0.9,0.1,1,0.5c0,0,0,0,0,0&#10;&#9;&#9;c0.1,0.4-0.1,0.9-0.5,1c0,0,0,0,0,0l-60.4,18.3C346.4,410.4,346.3,410.4,346.2,410.4z"/>
</g>
<g id="smartphone_chat_chatting-42">
	<path class="st0_chatting-42" d="M193.5,75h113c4.6,0,8.3,3.7,8.3,8.3v241.6c0,4.6-3.7,8.3-8.3,8.3h-113c-4.6,0-8.3-3.7-8.3-8.3V83.3&#10;&#9;&#9;C185.2,78.7,188.9,75,193.5,75z"/>
	<path class="st1_chatting-42" d="M306.5,334h-113c-5,0-9-4-9-9V83.3c0-5,4-9,9-9h113c5,0,9,4,9,9v241.6C315.5,329.9,311.5,334,306.5,334&#10;&#9;&#9;C306.5,334,306.5,334,306.5,334z M193.5,75.8c-4.1,0-7.5,3.3-7.5,7.5c0,0,0,0,0,0v241.6c0,4.1,3.3,7.5,7.5,7.5h113&#10;&#9;&#9;c4.1,0,7.5-3.4,7.5-7.5V83.3c0-4.1-3.3-7.5-7.5-7.5H193.5z"/>
	<rect x="192.1" y="98.4" class="st0_chatting-42" width="115.9" height="198.7"/>
	<path class="st1_chatting-42" d="M308,297.9H192.1c-0.4,0-0.8-0.3-0.8-0.8c0,0,0,0,0,0V98.4c0-0.4,0.3-0.8,0.8-0.8c0,0,0,0,0,0H308&#10;&#9;&#9;c0.4,0,0.8,0.3,0.8,0.8c0,0,0,0,0,0v198.7C308.8,297.5,308.4,297.9,308,297.9C308,297.9,308,297.9,308,297.9z M192.9,296.3h114.3&#10;&#9;&#9;V99.2H192.8L192.9,296.3z"/>
	<path class="st0_chatting-42" d="M239,306.7h22c2.8,0,5.1,2.3,5.1,5.1v8.4c0,2.8-2.3,5.1-5.1,5.1h-22c-2.8,0-5.1-2.3-5.1-5.1v-8.4&#10;&#9;&#9;C233.9,309,236.2,306.7,239,306.7z"/>
	<path class="st4_chatting-42" d="M261,326.1h-22c-3.2,0-5.9-2.6-5.9-5.9v-8.4c0-3.2,2.6-5.9,5.9-5.9h22c3.2,0,5.9,2.6,5.9,5.9v8.4&#10;&#9;&#9;C266.9,323.5,264.2,326.1,261,326.1z M239,307.5c-2.4,0-4.3,1.9-4.3,4.3v8.4c0,2.4,1.9,4.3,4.3,4.3h22c2.4,0,4.3-1.9,4.3-4.3v-8.4&#10;&#9;&#9;c0-2.4-1.9-4.3-4.3-4.3H239z"/>
	<path class="st4_chatting-42" d="M261.7,87h-33c-0.4,0-0.8-0.4-0.8-0.8c0-0.4,0.3-0.8,0.8-0.8h33c0.4,0,0.8,0.3,0.8,0.8&#10;&#9;&#9;C262.5,86.6,262.1,87,261.7,87C261.7,87,261.7,87,261.7,87z"/>
	<path class="st4_chatting-42" d="M270.8,87h-4.4c-0.4,0-0.8-0.4-0.8-0.8c0-0.4,0.3-0.8,0.8-0.8h4.4c0.4,0,0.8,0.4,0.8,0.8&#10;&#9;&#9;C271.5,86.7,271.2,87,270.8,87z"/>
	<path class="st1_chatting-42" d="M308,110.4H192.1c-0.4,0-0.8-0.3-0.8-0.8c0-0.4,0.3-0.8,0.8-0.8c0,0,0,0,0,0H308c0.4,0,0.8,0.3,0.8,0.8&#10;&#9;&#9;C308.8,110,308.4,110.4,308,110.4C308,110.4,308,110.4,308,110.4z"/>
	<path class="st4_chatting-42" d="M302.9,118.4h-6.4l0,0h-0.3h-46.4c-1.7,0-3,1.3-3,3l0,0v11.7c0,1.7,1.3,3,3,3h46.4c1.7,0,3-1.3,3-3v-11&#10;&#9;&#9;L302.9,118.4z"/>
	<path class="st4_chatting-42" d="M203.6,176.5h6.4l0,0h0.3h46.4c1.7,0,3,1.3,3,3v18.2c0,1.7-1.3,3-3,3h-46.4c-1.7,0-3-1.3-3-3v-17.6&#10;&#9;&#9;L203.6,176.5z"/>
	<path class="st4_chatting-42" d="M203.6,235.3h6.4l0,0c0.1,0,0.2,0,0.3,0H265c1.7,0,3,1.3,3,3l0,0v25.3c0,1.7-1.3,3-3,3h-54.7c-1.7,0-3-1.3-3-3&#10;&#9;&#9;V239L203.6,235.3z"/>
	<path class="st4_chatting-42" d="M302.9,208.2h-6.4l0,0h-0.3h-46.4c-1.7,0-3,1.3-3,3v11.7c0,1.7,1.3,3,3,3h46.4c1.7,0,3-1.3,3-3v-11&#10;&#9;&#9;L302.9,208.2z"/>
	<path class="st4_chatting-42" d="M238,140.2H295c2.3,0,4.1,1.8,4.1,4.1v19.3c0,2.3-1.8,4.1-4.1,4.1H238c-2.3,0-4.1-1.8-4.1-4.1v-19.3&#10;&#9;&#9;C233.8,142.1,235.7,140.2,238,140.2z"/>
	<path class="st0_chatting-42" d="M205.1,276.7h89.9c3.6,0,6.5,2.9,6.5,6.5v0c0,3.6-2.9,6.5-6.5,6.5h-89.9c-3.6,0-6.5-2.9-6.5-6.5v0&#10;&#9;&#9;C198.6,279.6,201.5,276.7,205.1,276.7z"/>
	<path class="st4_chatting-42" d="M294.9,290.5h-89.9c-4-0.1-7.2-3.5-7-7.6c0.1-3.8,3.2-6.9,7-7h89.9c4,0.1,7.2,3.5,7,7.6&#10;&#9;&#9;C301.8,287.3,298.7,290.3,294.9,290.5z M205.1,277.5c-3.2,0-5.7,2.6-5.7,5.7s2.6,5.7,5.7,5.7h89.9c3.2,0,5.7-2.6,5.7-5.7&#10;&#9;&#9;s-2.6-5.7-5.7-5.7H205.1z"/>
</g>
<g id="thumb_chatting-42">
	<path class="st0_chatting-42" d="M160.4,389.4c0,0,25.6-21.1,27.6-45.2s-2-49.2,1-54.6s23.6-35,28.1-42.9c5.9-10.4-3-19.7-9.4-15.8&#10;&#9;&#9;s-31.6,18.2-44.9,37.5c0,0-7.9,8.4-14.8,23.2"/>
	<path class="st1_chatting-42" d="M160.4,390.1c-0.4,0-0.8-0.4-0.8-0.8c0-0.2,0.1-0.4,0.3-0.6c0.3-0.2,25.4-21.2,27.3-44.7&#10;&#9;&#9;c1-11.7,0.5-23.8,0.1-33.5c-0.4-10.7-0.7-18.4,0.9-21.4c1.4-2.6,7-10.9,12.8-19.6c6.4-9.5,12.9-19.2,15.3-23.3&#10;&#9;&#9;c3.2-5.6,1.8-10.8-1-13.6c-2.2-2.1-5-2.6-7.3-1.2l-1.7,1c-8.4,5.1-30.7,18.5-42.9,36.2c-0.2,0.2-8,8.6-14.7,23.1&#10;&#9;&#9;c-0.2,0.4-0.6,0.5-1,0.4c-0.4-0.2-0.5-0.6-0.4-1c6.9-14.7,14.9-23.3,14.9-23.4c12.4-17.9,34.9-31.4,43.3-36.6l1.7-1&#10;&#9;&#9;c2.9-1.8,6.5-1.2,9.2,1.4c3.2,3.1,4.9,9.1,1.3,15.4c-2.4,4.1-8.9,13.9-15.3,23.4c-5.8,8.7-11.4,16.9-12.8,19.5s-1.1,10.5-0.7,20.6&#10;&#9;&#9;c0.4,9.7,0.8,21.9-0.1,33.7c-2,24.2-27.6,45.6-27.9,45.8C160.8,390.1,160.6,390.2,160.4,390.1z"/>
	<path class="st0_chatting-42" d="M339.6,389.4c0,0-25.6-21.1-27.6-45.2s2-49.2-1-54.6s-23.6-35-28.1-42.9c-5.9-10.4,3-19.7,9.4-15.8&#10;&#9;&#9;s31.6,18.2,44.9,37.5c0,0,7.9,8.4,14.8,23.2"/>
	<path class="st1_chatting-42" d="M339.6,390.1c-0.2,0-0.4-0.1-0.5-0.2c-0.3-0.2-25.9-21.6-27.9-45.8c-1-11.8-0.5-24-0.1-33.7&#10;&#9;&#9;c0.4-10.1,0.7-18-0.7-20.6s-6.9-10.8-12.8-19.5c-6.4-9.5-13-19.3-15.3-23.4c-3.6-6.3-2-12.3,1.3-15.4c2.7-2.6,6.3-3.2,9.2-1.4&#10;&#9;&#9;l1.7,1c8.5,5.1,31,18.7,43.4,36.7l0,0c0,0,8,8.5,14.9,23.3c0.2,0.4,0,0.8-0.4,1c-0.4,0.2-0.8,0-1-0.4c-6.8-14.5-14.6-22.9-14.6-23&#10;&#9;&#9;c-12.3-17.8-34.6-31.2-43-36.3l-1.7-1c-2.3-1.4-5.1-1-7.3,1.2c-2.8,2.7-4.2,8-1,13.6c2.3,4.1,8.9,13.8,15.3,23.3&#10;&#9;&#9;c5.9,8.7,11.4,16.9,12.8,19.6c1.6,3,1.3,10.7,0.9,21.4c-0.4,9.7-0.8,21.8,0.1,33.5c1.9,23.5,27,44.5,27.3,44.7&#10;&#9;&#9;c0.3,0.3,0.4,0.8,0.1,1.1C340.1,390,339.9,390.1,339.6,390.1L339.6,390.1z"/>
</g>
<g id="chat_2_male_chatting-42">
	<path class="st2_chatting-42 targetColor" d="M98.3,115.1h103.3c6.5,0,11.7,5.3,11.7,11.7v47.2c0,6.5-5.3,11.7-11.7,11.7H98.3c-6.5,0-11.7-5.3-11.7-11.7&#10;&#9;&#9;v-47.2C86.5,120.3,91.8,115.1,98.3,115.1z" style="fill: rgb(231, 84, 128);"/>
	<circle class="st0_chatting-42" cx="119.3" cy="147.6" r="22.1"/>
	<path class="st0_chatting-42" d="M110.2,135.8c-0.3,3,0.1,6.1,1.1,9c0.2,0.8,0.7,1.6,1.3,2.3c0.8,0.6,1.7,1,2.7,1.2c1.6,0.3,3.2,0.5,4.8,0.5&#10;&#9;&#9;c1.7,0.2,3.4-0.3,4.8-1.3c1.6-1.3,1.4-3,2.1-4.7c0.5-1.3,2-1.8,2.5-3.2c0.2-0.8,0.3-1.6,0.2-2.3c-0.2-2.1-1.1-4.1-2.5-5.7&#10;&#9;&#9;c-1.8-1.9-4.6-2.5-7.1-2.6s-5.1-0.6-5.3,2.4c-0.9-0.2-1.8-0.1-2.6,0.5C111,132.8,110.3,134.3,110.2,135.8z"/>
	<path class="st1_chatting-42" d="M120.2,149.5H120c-1.7,0-3.4-0.2-5-0.5c-1.1-0.1-2.2-0.6-3.1-1.4c-0.7-0.7-1.2-1.6-1.5-2.6&#10;&#9;&#9;c-1-3-1.4-6.2-1.2-9.4l0,0c0.1-1.7,0.9-3.4,2.2-4.5c0.7-0.5,1.5-0.8,2.4-0.8c0.7-2.5,3.1-2.4,5-2.3h1c3.3,0,6,1,7.7,2.8&#10;&#9;&#9;c1.5,1.7,2.5,3.9,2.7,6.2c0.1,0.9,0.1,1.8-0.2,2.7c-0.3,0.8-0.9,1.5-1.5,2c-0.4,0.3-0.8,0.7-1,1.2c-0.2,0.5-0.3,1-0.5,1.6&#10;&#9;&#9;c-0.2,1.4-0.9,2.6-1.9,3.5C123.8,149.1,122,149.6,120.2,149.5z M111,135.9c-0.3,2.9,0.1,5.8,1.1,8.6c0.2,0.7,0.5,1.4,1,1.9&#10;&#9;&#9;c0.6,0.6,1.4,0.9,2.3,1c1.5,0.3,3.1,0.4,4.7,0.5c1.5,0.1,3-0.3,4.2-1.1c0.7-0.7,1.2-1.6,1.3-2.6c0.1-0.6,0.3-1.2,0.5-1.8&#10;&#9;&#9;c0.3-0.7,0.8-1.3,1.4-1.8c0.5-0.4,0.9-0.8,1.1-1.4c0.2-0.6,0.2-1.3,0.1-2c-0.2-1.9-0.9-3.8-2.2-5.3c-1.8-2-4.9-2.3-6.5-2.3&#10;&#9;&#9;c-0.3,0-0.7,0-1,0c-2.4-0.1-3.3,0-3.5,1.7c0,0.4-0.4,0.8-0.9,0.7c0,0-0.1,0-0.1,0c-0.6-0.2-1.3,0-1.8,0.4&#10;&#9;&#9;C111.7,133.4,111.1,134.7,111,135.9L111,135.9z"/>
	<path class="st2_chatting-42 targetColor" d="M117.7,175.6l-3.1-23l11,1.5l3.8,21.5l9.4-0.8c-0.3-11.1-4.3-20.5-7.2-22.6c-3.5-2.6-16.8-2.1-16.8-2.1&#10;&#9;&#9;s-10.6,4.5-13.3,9.6c-1.2,2.2-1.9,8.4-1.6,16.1L117.7,175.6z" style="fill: rgb(231, 84, 128);"/>
	<path class="st0_chatting-42" d="M125.6,147.6l1.1,6c0,0-1.4,3.9-5.4,3.4c-2.4-0.3-4.5-1.7-5.7-3.8l-1.1-10.9c0,0,2.7-1.8,1.2-8&#10;&#9;&#9;c3.3,1,6.8,1.1,10.2,0.3c0,0,2.5,6.6,2.3,9.6C128.2,145.8,127.1,147.3,125.6,147.6z"/>
	<path class="st1_chatting-42" d="M121.9,157.8c-0.3,0-0.5,0-0.8,0c-2.6-0.4-5-1.9-6.3-4.2c0-0.1-0.1-0.2-0.1-0.3l-1.1-10.9&#10;&#9;&#9;c0-0.3,0.1-0.6,0.3-0.8c0.1-0.1,2.2-1.7,0.9-7.1c-0.1-0.3,0-0.6,0.2-0.8c0.2-0.2,0.5-0.3,0.8-0.2c3.2,1,6.5,1.1,9.8,0.3&#10;&#9;&#9;c0.4-0.1,0.8,0.1,0.9,0.5c0.1,0.3,2.5,6.8,2.4,10c0,1.7-0.9,3.2-2.5,3.9l1,5.3c0,0.1,0,0.3,0,0.4&#10;&#9;&#9;C126.6,156.3,124.4,157.8,121.9,157.8z M116.3,152.9c1.1,1.8,2.9,2.9,5,3.2c1.9,0.2,3.7-0.9,4.4-2.7l-1-5.7c0-0.2,0-0.4,0.1-0.6&#10;&#9;&#9;c0.1-0.2,0.3-0.3,0.5-0.3c1.2-0.3,2-1.4,1.9-2.6c0.1-2.3-1.4-6.9-2-8.6c-2.9,0.6-5.8,0.5-8.6-0.1c0.7,4.3-0.7,6.4-1.4,7.2&#10;&#9;&#9;L116.3,152.9z"/>
	<path class="st0_chatting-42" d="M121.2,138.8c0,0,2.2,3.2,1.7,3.8s-2,0.2-2,0.2"/>
	<path class="st1_chatting-42" d="M121.8,143.7c-0.4,0-0.8-0.1-1.1-0.1c-0.4-0.1-0.7-0.5-0.6-0.9c0,0,0,0,0,0c0.1-0.4,0.5-0.7,0.9-0.6&#10;&#9;&#9;c0.3,0.1,0.7,0.1,1,0.1c-0.4-1-0.9-2-1.6-2.9c-0.2-0.4-0.1-0.8,0.2-1.1c0.4-0.2,0.8-0.1,1.1,0.2c2.5,3.7,1.9,4.4,1.6,4.7&#10;&#9;&#9;C123,143.5,122.4,143.7,121.8,143.7z M122.1,142.4L122.1,142.4z"/>
	
		<ellipse transform="matrix(0.9995 -3.071296e-02 3.071296e-02 0.9995 -4.1898 3.7234)" class="st1_chatting-42" cx="119.1" cy="138.2" rx="0.4" ry="0.9"/>
	
		<ellipse transform="matrix(0.9995 -3.071296e-02 3.071296e-02 0.9995 -4.1774 3.878)" class="st1_chatting-42" cx="124.1" cy="137.9" rx="0.4" ry="0.9"/>
	<path class="st0_chatting-42" d="M116.7,140.4c-0.4-0.6-0.9-1-1.5-1.4c-0.3-0.2-0.6-0.3-1-0.3c-0.3,0-0.6,0.1-0.8,0.3c-0.7,0.5-1.2,1.4-1.3,2.2&#10;&#9;&#9;c0,0.4,0,0.8,0.2,1.2c0.3,0.6,0.8,1.1,1.3,1.3c0.6,0.3,1.2,0.5,1.8,0.6"/>
	<path class="st1_chatting-42" d="M115.4,145.2h-0.2c-0.7-0.1-1.4-0.4-2-0.7c-0.8-0.4-1.4-1-1.7-1.8c-0.2-0.5-0.3-1.1-0.2-1.6&#10;&#9;&#9;c0.1-1.1,0.7-2.2,1.6-2.8c0.4-0.3,0.8-0.5,1.2-0.5c0.5,0,1.1,0.1,1.5,0.5c0.7,0.4,1.3,1,1.7,1.6c0.3,0.4,0.2,0.8-0.2,1.1&#10;&#9;&#9;c0,0,0,0,0,0c-0.4,0.3-0.9,0.2-1.1-0.2c-0.3-0.5-0.8-0.9-1.2-1.2c-0.2-0.1-0.4-0.2-0.6-0.2c-0.2,0-0.3,0.1-0.4,0.2&#10;&#9;&#9;c-0.6,0.4-0.9,1-1,1.7c0,0.3,0,0.6,0.1,0.8c0.2,0.4,0.6,0.7,1,0.9c0.5,0.2,1.1,0.4,1.7,0.5c0.4,0.1,0.7,0.5,0.6,0.9c0,0,0,0,0,0.1&#10;&#9;&#9;C116.1,145,115.8,145.2,115.4,145.2z"/>
	<path class="st1_chatting-42" d="M124.8,144.5l-5.3,0.5c0.5,0.8,1.5,1.4,2.5,1.4C123.5,146.4,124.8,144.5,124.8,144.5z"/>
	<path class="st0_chatting-42" d="M200.9,137.7h-51.4c-0.4,0-0.8-0.3-0.9-0.7c0-0.4,0.3-0.8,0.7-0.9c0.1,0,0.1,0,0.2,0h51.4&#10;&#9;&#9;c0.4,0,0.7,0.4,0.7,0.9C201.5,137.3,201.2,137.6,200.9,137.7z"/>
	<path class="st0_chatting-42" d="M200.9,151.2h-51.4c-0.4,0-0.8-0.3-0.8-0.8c0-0.4,0.3-0.8,0.8-0.8c0,0,0,0,0,0h51.4c0.4,0,0.8,0.3,0.8,0.8&#10;&#9;&#9;C201.6,150.9,201.3,151.2,200.9,151.2C200.9,151.2,200.9,151.2,200.9,151.2z"/>
	<path class="st0_chatting-42" d="M188.6,164.8h-39.1c-0.4,0-0.8-0.3-0.8-0.8c0-0.4,0.3-0.8,0.8-0.8c0,0,0,0,0,0h39.1c0.4,0,0.8,0.4,0.8,0.8&#10;&#9;&#9;C189.3,164.4,189,164.8,188.6,164.8z"/>
	<path class="st2_chatting-42 targetColor" d="M201.6,185.8c0,0,24.2,0.4,23.8,0s-19.1-17.3-19.1-17.3L201.6,185.8z" style="fill: rgb(231, 84, 128);"/>
</g>
<g id="chat_1_female_chatting-42">
	<path class="st2_chatting-42 targetColor" d="M399.8,155.7H296.5c-6.5,0-11.7-5.3-11.7-11.7V96.7c0-6.5,5.3-11.7,11.7-11.7h103.3c6.5,0,11.7,5.3,11.7,11.7&#10;&#9;&#9;v47.2C411.5,150.4,406.3,155.7,399.8,155.7z" style="fill: rgb(231, 84, 128);"/>
	<circle class="st0_chatting-42" cx="318.6" cy="117.5" r="22.1"/>
	<path class="st0_chatting-42" d="M400.1,107.5h-51.4c-0.4,0-0.7-0.4-0.7-0.9c0-0.4,0.3-0.7,0.7-0.7h51.4c0.4,0,0.7,0.4,0.7,0.9&#10;&#9;&#9;C400.8,107.2,400.5,107.5,400.1,107.5z"/>
	<path class="st0_chatting-42" d="M400.1,121.1h-51.4c-0.4,0-0.7-0.4-0.7-0.9c0-0.4,0.3-0.7,0.7-0.7h51.4c0.4,0,0.7,0.4,0.7,0.9&#10;&#9;&#9;C400.8,120.7,400.5,121,400.1,121.1z"/>
	<path class="st0_chatting-42" d="M387.8,134.6h-39.1c-0.4,0-0.8-0.3-0.8-0.8c0-0.4,0.3-0.8,0.8-0.8c0,0,0,0,0,0h39.1c0.4,0,0.8,0.3,0.8,0.8&#10;&#9;&#9;C388.6,134.3,388.2,134.6,387.8,134.6C387.8,134.6,387.8,134.6,387.8,134.6z"/>
	<path class="st2_chatting-42 targetColor" d="M296.5,155.7c0,0-24.2,0.4-23.8,0s19.1-17.3,19.1-17.3L296.5,155.7z" style="fill: rgb(231, 84, 128);"/>
	<path class="st0_chatting-42" d="M314.3,99.2h0.6c0.9,0.2,1.8,0.5,2.7,0.9c1.4-1,3.3-0.8,5-0.2c5.2,1.9,14.2,13.2,9.1,18.7&#10;&#9;&#9;c-1.2,1.1-2.7,1.7-4.3,1.8c-4.4,0.7-8.8,1-13.2,0.7c-1.6,0-3.2-0.3-4.6-1c-4.3-2.4-1.8-11.7-0.1-15.3c0.7-1.7,1.7-3.2,2.8-4.7&#10;&#9;&#9;C312.7,99.6,313.5,99.3,314.3,99.2z"/>
	<path class="st1_chatting-42" d="M317.7,121.9c-1.2,0-2.4,0-3.6-0.1c-1.7,0-3.4-0.4-5-1.1c-4.8-2.6-2.4-12-0.4-16.2c0.7-1.8,1.7-3.4,3-4.9&#10;&#9;&#9;c0.7-0.6,1.6-1,2.5-1.1l0,0c0.2,0,0.5,0,0.7,0c0.9,0.2,1.8,0.4,2.7,0.8c1.7-0.7,3.6-0.8,5.2-0.1c3.8,1.4,9.4,7.3,10.8,12.9&#10;&#9;&#9;c0.7,2.8,0.2,5.3-1.4,7c-1.3,1.2-2.9,1.9-4.7,2C324.2,121.7,321,121.9,317.7,121.9z M314.4,99.9c-0.6,0-1.2,0.3-1.7,0.7&#10;&#9;&#9;c-1.1,1.3-2,2.8-2.7,4.4c-1.9,4-3.8,12.4-0.2,14.4c1.4,0.6,2.8,1,4.4,1c4.4,0.3,8.7,0,13.1-0.7c1.4-0.1,2.8-0.7,3.9-1.6&#10;&#9;&#9;c1.3-1.4,1.6-3.3,1-5.7c-1.3-5.1-6.4-10.6-9.9-11.9c-0.8-0.3-2.9-0.9-4.3,0.1c-0.3,0.2-0.6,0.2-0.9,0c-0.7-0.3-1.5-0.5-2.3-0.7&#10;&#9;&#9;L314.4,99.9L314.4,99.9z"/>
	<path class="st2_chatting-42 targetColor" d="M311,140.9c0.6-6.9,1.1-15.7,1.1-15.8l9.7,0.4l-0.7,15.4l18.7-3.4c-1.5-3.4-3.4-6.6-5.7-9.6&#10;&#9;&#9;c-4.4-5.9-13.9-5.9-14.2-5.9c0.2,0,4.6,0-7.8-0.7c-13.4-0.8-17.4,15.2-17.4,15.2l1.9,1L311,140.9z" style="fill: rgb(231, 84, 128);"/>
	<path class="st0_chatting-42" d="M313.5,119.6l-1.1,6c0,0-0.1,3.5,3.8,3.2c2.3-0.2,4.4-1.4,5.8-3.3l1.2-7.4c0.6-2.8,1.1-5.6,1.4-8.4&#10;&#9;&#9;c-2.9,0.9-6.5-2.7-7.4-5.1c-0.5,1.5-0.1,3.1,0.9,4.3c-1.6-0.6-2.9-1.9-3.4-3.6c-0.9,0.7-1.7,1.4-2.4,2.2c-0.6,0.9-1.1,1.9-1.5,3&#10;&#9;&#9;c-0.6,1.9-1,4.7-0.1,6.5C311.2,118.1,312.2,119.1,313.5,119.6z"/>
	<path class="st1_chatting-42" d="M315.8,129.5c-1.1,0.1-2.1-0.3-2.9-1c-0.8-0.8-1.2-1.8-1.2-2.9c0-0.1,0.7-4.1,1-5.6c-1.2-0.7-2.1-1.7-2.7-2.9&#10;&#9;&#9;c-1.2-2.3-0.4-5.7,0.1-7c0.3-1.1,0.9-2.2,1.6-3.2c0,0,2.3-2.6,3.1-2.5c0.3,0.1,0.5,0.2,0.6,0.5c0.2,0.7,0.5,1.3,1,1.8&#10;&#9;&#9;c-0.2-0.8-0.1-1.7,0.1-2.5c0.1-0.4,0.6-0.6,0.9-0.4c0.2,0.1,0.4,0.2,0.4,0.4c0.8,2.1,4.1,5.5,6.5,4.7c0.2-0.1,0.5,0,0.7,0.1&#10;&#9;&#9;c0.2,0.1,0.3,0.4,0.3,0.6c-0.2,2-0.4,3.9-0.9,5.9c-0.2,0.9-0.3,1.8-0.5,2.6l-1.2,7.4c0,0.1,0,0.2-0.1,0.3c-1.4,2.1-3.8,3.5-6.3,3.7&#10;&#9;&#9;L315.8,129.5z M313.1,125.7c0.1,0.7,0.3,1.3,0.8,1.8c0.6,0.5,1.5,0.7,2.3,0.6c2.1-0.2,3.9-1.2,5.1-2.9l1.2-7.3&#10;&#9;&#9;c0.1-0.9,0.3-1.8,0.5-2.7c0.3-1.6,0.6-3.2,0.8-4.8c-2.2,0.1-4.5-1.6-5.9-3.4c0.2,0.5,0.4,0.9,0.7,1.3c0.3,0.3,0.2,0.7,0,1&#10;&#9;&#9;c-0.2,0.2-0.5,0.2-0.7,0.1c-1.5-0.5-2.8-1.6-3.5-3.1c-0.6,0.5-1.4,1.3-1.5,1.4c-0.6,0.8-1,1.8-1.3,2.7c-0.8,2.5-0.8,4.7-0.2,5.9&#10;&#9;&#9;c0.5,1.1,1.3,2,2.4,2.4c0.4,0.1,0.6,0.5,0.5,0.8C314.2,119.8,313.1,125.5,313.1,125.7L313.1,125.7z"/>
	<path class="st0_chatting-42" d="M322.9,113.7c0.2-0.4,0.5-0.8,0.9-1c0.4-0.2,0.8-0.3,1.2-0.4c0.2-0.1,0.5-0.1,0.7,0c0.2,0,0.3,0.1,0.4,0.2&#10;&#9;&#9;c0.3,0.2,0.6,0.6,0.6,0.9c0,0.3,0,0.6-0.1,0.9c-0.1,0.3-0.2,0.6-0.4,0.9c-0.4,0.6-1,1-1.6,1.2c-0.7,0.2-1.4,0-2-0.4"/>
	<path class="st1_chatting-42" d="M324.1,117.2c-0.6,0-1.2-0.2-1.8-0.5c-0.3-0.2-0.4-0.6-0.2-0.9c0.2-0.3,0.6-0.4,0.8-0.2c0,0,0,0,0,0&#10;&#9;&#9;c0.4,0.3,1,0.4,1.5,0.3c0.5-0.1,1-0.4,1.3-0.9c0.2-0.2,0.3-0.5,0.3-0.8c0.1-0.2,0.1-0.4,0.1-0.6c-0.1-0.2-0.2-0.4-0.4-0.6&#10;&#9;&#9;c-0.1-0.1-0.1-0.1-0.2-0.1c-0.1,0-0.3,0-0.4,0c-0.3,0.1-0.7,0.2-1,0.3c-0.3,0.2-0.5,0.4-0.6,0.7c-0.1,0.3-0.5,0.5-0.8,0.4&#10;&#9;&#9;c-0.3-0.1-0.5-0.5-0.4-0.8c0,0,0-0.1,0-0.1c0.2-0.6,0.6-1,1.2-1.3c0.4-0.2,0.9-0.4,1.4-0.5c0.3-0.1,0.7-0.1,1,0&#10;&#9;&#9;c0.2,0.1,0.4,0.2,0.6,0.3c0.4,0.3,0.8,0.8,0.9,1.3c0.1,0.4,0,0.8-0.1,1.2c-0.1,0.4-0.3,0.8-0.5,1.1c-0.5,0.7-1.2,1.2-2,1.4&#10;&#9;&#9;C324.7,117.2,324.4,117.2,324.1,117.2z"/>
	<path class="st0_chatting-42" d="M315.3,110.6c0,0-2.5,2.5-2.2,3.1s1.7,0.5,1.7,0.5"/>
	<path class="st1_chatting-42" d="M314.6,114.9c-0.8,0.1-1.6-0.2-2.1-0.8c-0.2-0.3-0.6-1.1,2.3-3.9c0.3-0.3,0.7-0.3,1,0c0,0,0,0,0,0&#10;&#9;&#9;c0.3,0.3,0.3,0.7,0,1c0,0,0,0,0,0c-0.7,0.7-1.4,1.4-1.9,2.3c0.3,0.1,0.6,0.1,1,0.1c0.4,0,0.7,0.3,0.7,0.7c0,0.4-0.3,0.7-0.6,0.7&#10;&#9;&#9;c0,0,0,0,0,0H314.6z"/>
	<ellipse transform="matrix(0.4195 -0.9078 0.9078 0.4195 83.7773 353.8)" class="st1_chatting-42" cx="318.5" cy="111.4" rx="0.7" ry="0.5"/>
	
		<ellipse transform="matrix(0.4195 -0.9078 0.9078 0.4195 81.5363 348.4107)" class="st1_chatting-42" cx="313.2" cy="110.5" rx="0.7" ry="0.5"/>
	<path class="st1_chatting-42" d="M312.6,115.3l4.3,0.2c0,1.1-0.9,1.9-1.9,1.9c-0.1,0-0.3,0-0.4,0C313.5,117.4,312.7,116.5,312.6,115.3z"/>
</g>
</svg>