<svg transform="scale(1)" version="1.1" id="AVfuIXZ6Qy" xmlns="http://www.w3.org/2000/svg" xmlns:xlink="http://www.w3.org/1999/xlink" x="0px" y="0px" viewBox="0 0 500 500" xml:space="preserve" class="pbimage_pbimage__wrapper__image__0LEis false"><title>Sending Emails</title><style type="text/css"> .st0{fill:#D1D3D4;} .st1{fill:#231F20;} .st2{fill:#FFFFFF;} .st3{fill:#68E1FD;}
 .st3{fill:#f6d6d9;}
 .st2{fill:#FFFFFF;}
 .st1{fill:#231F20;}
 .st0{fill:#D1D3D4;}</style><g id="Big_Envelope_Back"><polygon class="st0" points="399.4,230.2 399.4,399.3 87.2,399.3 87.2,230.2 243.3,135.9 	" fill="#D1D3D4"></polygon><path class="st1" d="M399.4,400H87.2c-0.4,0-0.7-0.3-0.7-0.7l0,0V230.2c0-0.2,0.1-0.5,0.3-0.6l156.1-94.4c0.2-0.1,0.5-0.1,0.7,0
		l156.1,94.4c0.2,0.1,0.3,0.4,0.3,0.6v169.1C400.1,399.7,399.8,400,399.4,400L399.4,400L399.4,400z M87.9,398.6h310.8v-168
		l-155.4-93.9l-155.4,94L87.9,398.6L87.9,398.6z" fill="#231F20"></path></g><g id="Character"><path class="st2" d="M311.1,159.9c0,0,7.2-13.5,6.3-22.5s-9.8-10.5-9.8-10.5s-21.4-11.1-26.3-18.8l0.2,11.3c0,0-4.6-1.2-10.5-6.2
		c0,0-3.3,5.8,0.2,10.9c0,0-6.3,1.2-10.4-2.9c0,0,2.1,16.9,17.1,19.1C287.6,141.6,300.4,160.5,311.1,159.9L311.1,159.9z"></path><path class="st1" d="M310.5,160.6c-5.9,0-12.2-5.3-18.4-10.5c-5.2-4.4-10.2-8.6-14.5-9.2c-15.3-2.2-17.7-19.6-17.7-19.7
		c0-0.3,0.1-0.6,0.4-0.7c0.3-0.1,0.6-0.1,0.8,0.1c2.9,2.9,6.9,3,8.8,2.9c-2.8-5.1,0.2-10.4,0.3-10.7c0.1-0.2,0.3-0.3,0.5-0.3
		c0.2,0,0.4,0,0.6,0.2c2.8,2.4,6,4.3,9.4,5.7l-0.1-10.3c0-0.4,0.3-0.7,0.7-0.7c0.2,0,0.5,0.1,0.6,0.3c4.6,7.2,24.5,17.8,26,18.6
		c1.1,0.2,9.3,2.3,10.2,11.1c1,9.1-6,22.3-6.4,22.9c-0.1,0.2-0.3,0.4-0.6,0.4L310.5,160.6L310.5,160.6z M311.1,159.9L311.1,159.9z
		 M261.8,122.9c1.1,4.4,4.8,15,16.1,16.6c4.7,0.7,9.8,5,15.2,9.5c6,5,12.1,10.1,17.5,10.1h0.1c1.1-2.2,6.8-13.8,6-21.7
		c-0.9-8.4-9.1-9.9-9.2-9.9c-0.1,0-0.1,0-0.2-0.1c-0.8-0.4-18.7-9.8-25.3-17.3l0.1,9.2c0,0.4-0.3,0.7-0.7,0.7c-0.1,0-0.1,0-0.2,0
		c-0.2,0-4.5-1.2-10.1-5.7c-0.7,1.6-2,5.7,0.6,9.4c0.2,0.3,0.1,0.8-0.2,1c-0.1,0.1-0.2,0.1-0.3,0.1
		C268,125.2,264.6,124.6,261.8,122.9L261.8,122.9z"></path><path class="st3" d="M300,299.3c0,0,34.5-41.7,40.2-73.6S326,186.4,319,184.1s-43.1-17.4-61.3-4.3s-36.3,94.8-36.3,94.8L300,299.3
		L300,299.3z"></path><path class="st1" d="M175.7,340.8l37.1-46.2c0,0,25.8-32.9,11.4-36.3c0,0-20,2.6-52.6,14c-9.7,3.4-26.4,41.9-36.9,68.6L175.7,340.8
		L175.7,340.8z"></path><path class="st1" d="M175.7,341.5h-41.1c-0.4,0-0.7-0.3-0.7-0.7c0-0.1,0-0.2,0.1-0.3c11.7-29.6,27.6-65.7,37.3-69
		c32.4-11.3,52.6-14,52.8-14c0.1,0,0.2,0,0.2,0c2.1,0.4,3.8,1.8,4.5,3.8c3.3,9.5-14.7,32.7-15.5,33.6l-37.1,46.3
		C176.1,341.4,175.9,341.5,175.7,341.5L175.7,341.5z M135.6,340.1h39.8l36.8-46c0.2-0.2,18.3-23.5,15.3-32.3
		c-0.5-1.5-1.8-2.6-3.4-2.9c-1.8,0.2-21.5,3.2-52.4,13.9C164.6,275.3,151.8,299.2,135.6,340.1L135.6,340.1z"></path><path class="st1" d="M237.8,340.8l9.4-22.9c0,0,23,6.9,38.3,1.1c10.8-4.1,14.1-18,19-29.3c0,0-64.4-15.3-78.8-21.5
		c0,0-0.9,0-17.4,17.3c-7.4,7.8-13.2,31.4-17.5,55.3H237.8z"></path><path class="st1" d="M237.8,341.5h-47c-0.2,0-0.4-0.1-0.5-0.2c-0.1-0.2-0.2-0.4-0.1-0.6c5.4-30.2,11.3-49,17.6-55.6
		c16.7-17.6,17.6-17.5,17.9-17.5c0.1,0,0.2,0,0.2,0.1c14.2,6.1,78,21.3,78.7,21.4c0.2,0,0.4,0.2,0.5,0.4c0.1,0.2,0.1,0.4,0,0.6
		c-0.9,2.1-1.8,4.3-2.6,6.5c-3.8,9.7-7.7,19.7-16.7,23.1c-14.1,5.3-34.3,0.1-38.1-0.9l-9.2,22.4
		C238.3,341.4,238.1,341.5,237.8,341.5L237.8,341.5z M191.7,340.1h45.7l9.2-22.5c0.1-0.3,0.5-0.5,0.9-0.4c0.2,0.1,22.9,6.7,37.8,1.1
		c8.5-3.2,12.3-12.9,15.9-22.4c0.7-1.9,1.5-3.9,2.3-5.8c-7.4-1.8-63.7-15.3-77.7-21.2c-0.8,0.6-4.1,3.5-16.9,17
		C202.8,292.4,196.9,311.1,191.7,340.1L191.7,340.1z"></path><path class="st3" d="M257.7,179.8c0,0-15.3,16.8-24,25.2s-25.4,19.3-25.4,19.3s-50.3,4-50.8,4.8s0,17.5,0,17.5s49.1,9.4,58.1,7.8
		s30.1-15.8,30.1-15.8L257.7,179.8z"></path><path class="st2" d="M279.1,171.5l-1.5,15.8c0,0,2.9,9.1,13.5,7.4s12.6-8.9,12.6-8.9l6.9-30.9c0,0-6.4-4.6-12.4-22.7
		c0,0-22.3-4.2-23.1,4.4c0,0-4.4,15.4-4.1,23.5C271.3,168.1,278.9,171.4,279.1,171.5L279.1,171.5z"></path><path class="st1" d="M288.5,195.6c-5.2,0-9.9-3.2-11.7-8.1c0-0.1,0-0.2,0-0.3l1.5-15.3c-5-2.7-7.9-6.9-8.1-11.7
		c-0.3-8.2,3.9-23.1,4.1-23.8c0.1-1.4,0.9-2.7,2.1-3.6c5.7-4.3,21.1-1.4,21.8-1.3c0.2,0,0.5,0.2,0.5,0.5
		c5.9,17.5,12.1,22.3,12.2,22.3c0.2,0.2,0.3,0.4,0.3,0.7l-6.9,30.9c-0.1,0.4-2.2,7.8-13.2,9.5C290.3,195.5,289.4,195.6,288.5,195.6
		L288.5,195.6z M278.2,187.2c0.4,1.1,3.3,8.2,12.6,6.8c10-1.5,12-8.1,12-8.4l6.8-30.4c-1.5-1.3-6.9-6.8-12.2-22.3
		c-2.5-0.4-15.6-2.4-20.3,1.1c-0.9,0.6-1.5,1.6-1.6,2.7c-0.1,0.3-4.4,15.5-4.1,23.4c0.2,6,4.9,9.2,7.6,10.6c0.1,0.1,0.2,0.1,0.3,0.2
		c0.2,0.1,0.2,0.4,0.2,0.6L278.2,187.2L278.2,187.2z"></path><path class="st2" d="M302.9,155.4c0.5-1.4,1.4-2.6,2.6-3.4c1.7-1.1,4.3-2.1,6.4-1.6c2.6,0.7,3.9,3.9,3.4,6.5
		c-0.7,3.2-3,5.8-6.1,6.9c-2.1,0.6-4.4,0.4-6.3-0.7"></path><path class="st1" d="M306.7,164.9c-1.5,0-3-0.4-4.3-1.1c-0.3-0.2-0.5-0.6-0.3-0.9c0.2-0.3,0.6-0.5,1-0.3c1.8,1,3.9,1.2,5.8,0.6
		c2.9-1,5-3.4,5.6-6.4c0.5-2.2-0.6-5.1-2.9-5.7c-1.8-0.5-4.2,0.4-5.8,1.5c-1.1,0.7-1.9,1.8-2.3,3.1c-0.1,0.4-0.5,0.6-0.9,0.4
		c-0.4-0.1-0.6-0.5-0.4-0.9l0,0c0.5-1.5,1.5-2.9,2.9-3.8c1.7-1.2,4.6-2.3,7-1.7c3,0.8,4.5,4.5,3.9,7.3c-0.8,3.5-3.3,6.3-6.6,7.5
		C308.4,164.8,307.6,164.9,306.7,164.9L306.7,164.9z"></path><path class="st2" d="M287.2,147.7c0,0-6.4,7.4-5.3,9s4.8,1.1,4.8,1.1"></path><path class="st1" d="M285.5,158.5c-1.3,0-3.2-0.2-4.1-1.4c-1.2-1.8,2.8-6.9,5.3-9.9c0.3-0.3,0.7-0.3,1-0.1c0.3,0.3,0.3,0.7,0.1,1
		c-3.1,3.6-5.5,7.4-5.2,8.1c0.6,0.9,2.9,0.9,4.2,0.8c0.4,0,0.7,0.2,0.8,0.6c0,0.4-0.2,0.7-0.6,0.8
		C286.4,158.5,285.9,158.5,285.5,158.5L285.5,158.5z"></path><ellipse class="st1" transform="matrix(0.1597 -0.9872 0.9872 0.1597 105.4009 416.864)" cx="297.6" cy="146.5" rx="1.9" ry="1.4"></ellipse><ellipse class="st1" transform="matrix(0.9994 -3.472507e-02 3.472507e-02 0.9994 -4.883 9.8553)" cx="281.3" cy="145.5" rx="1.4" ry="1.9"></ellipse><path class="st1" d="M279.1,171.5c0,0,9.6,3.2,15.7,0.5c0,0-7.7,12.6-16.8,10.4L279.1,171.5L279.1,171.5z"></path><path class="st1" d="M280.3,183.3c-0.8,0-1.6-0.1-2.4-0.3c-0.3-0.1-0.6-0.4-0.5-0.8l1.1-10.8c0-0.4,0.4-0.7,0.8-0.6
		c0,0,0.1,0,0.1,0c0.1,0,9.4,3.1,15.2,0.5c0.3-0.1,0.6-0.1,0.8,0.2c0.2,0.2,0.2,0.6,0.1,0.8C295.1,172.8,288.6,183.3,280.3,183.3
		L280.3,183.3z M278.8,181.8c6.3,1.1,11.9-5.3,14.2-8.5c-5,1.2-11.1-0.3-13.3-0.9L278.8,181.8z"></path><path class="st1" d="M279.2,150.5c-0.1,0-0.3,0-0.5,0l-5.2-0.4c-3.1-0.2-5.4-2.9-5.1-6l0.3-4.1c0-0.4,0.4-0.7,0.8-0.6l14.9,1.2
		c0.4,0,0.7,0.4,0.7,0.7c0,0,0,0,0,0l-0.3,4.1C284.5,148.3,282.1,150.5,279.2,150.5L279.2,150.5z M270.1,140.7l-0.3,3.4
		c-0.1,1.1,0.3,2.2,1,3c0.7,0.8,1.8,1.4,2.9,1.5l5.2,0.4l0,0c1.1,0.1,2.2-0.3,3-1c0.8-0.7,1.4-1.8,1.5-2.9l0.3-3.4L270.1,140.7
		L270.1,140.7z"></path><path class="st1" d="M297.8,152c-0.1,0-0.3,0-0.5,0l0,0l-5.2-0.4c-3.1-0.2-5.4-2.9-5.1-6l0.3-4.1c0-0.4,0.4-0.7,0.8-0.6l14.9,1.1
		c0.4,0,0.7,0.4,0.7,0.7c0,0,0,0,0,0l-0.3,4.1C303.1,149.7,300.7,151.9,297.8,152L297.8,152z M297.4,150.6c1.1,0.1,2.2-0.3,3-1
		c0.8-0.7,1.4-1.8,1.5-2.9l0.3-3.4l-13.5-1.1l-0.3,3.4c-0.1,1.1,0.3,2.2,1,3c0.7,0.8,1.8,1.4,2.9,1.5L297.4,150.6L297.4,150.6z"></path><path class="st1" d="M287.8,144.8L287.8,144.8l-3.7-0.3c-0.4,0-0.7-0.4-0.6-0.8c0-0.4,0.4-0.7,0.8-0.6l3.6,0.3
		c0.4,0.1,0.6,0.4,0.6,0.8C288.4,144.5,288.1,144.7,287.8,144.8L287.8,144.8z"></path><path class="st1" d="M285.5,169.4c-4.4,0-7.9-3.4-9.2-7.3c-0.1-0.2,0-0.5,0.1-0.6c0.1-0.2,0.4-0.3,0.6-0.3c6,0.3,11.9-0.6,17.5-2.7
		c0.2-0.1,0.5-0.1,0.7,0.1c0.2,0.1,0.3,0.4,0.3,0.6c0,0.3-0.7,8-7.5,9.9C287.2,169.3,286.4,169.4,285.5,169.4L285.5,169.4z
		 M278,162.6c1.5,3.1,4.9,6.5,9.6,5.1c4.4-1.2,5.8-5.5,6.3-7.6C288.8,161.9,283.4,162.8,278,162.6L278,162.6z"></path><path class="st3" d="M336.9,197.1c8.2,3.8,21.4,93.4,7,99.3c-22.4,9.3-83-22.4-83-22.4l11.9-23.5c0,0,41.2,12.3,44.1,3.9
		s-11.3-54.4-6.5-59.4S336.9,197.1,336.9,197.1L336.9,197.1z"></path><path class="st2" d="M275.1,260c-6.9-1.6-14-3.5-20.4-6.5c-5-2.4-9.3-4.7-14.9-5.9c-6.9-1.5-14.1-1.8-21.1-0.8
		c-0.3,0-0.6,0.1-0.8,0.3c-0.8,0.7,0.4,1.9,1.4,2.2c2.7,0.8,5.6,1.2,8.4,1.1c-7.2,0.7-14.2,2.3-21,4.8c-0.8,0.3-1.7,0.8-1.6,1.6
		s1.5,1,2.4,0.9l16.7-2.8c-4.3,0.5-8.4,1.7-12.3,3.6c-0.6,0.3-1.2,0.7-1.2,1.3c-0.1,1.1,1.5,1.3,2.5,1c5.1-1,10.1-2.5,15-4.4
		l-11.1,4.6c-0.2,0.8,0.3,1.6,1,1.8c0,0,0,0,0,0c0.8,0.2,1.6,0.1,2.3-0.2l11.8-3.2l-7.6,2.8c-1.2,0.4-2.6,1.2-2.4,2.5
		c0.2,1.5,2.3,1.6,3.8,1.4c5.9-0.9,11.8-1.1,17.7-0.7c2.2,0.1,4.3-0.2,6.4,0.4c3,0.9,6,3.1,8.8,4.5c4.3,2.3,8.7,4.6,13,6.9"></path><path class="st1" d="M272.1,277.9c-0.1,0-0.2,0-0.3-0.1c-4.3-2.3-8.7-4.6-13-6.9c-0.9-0.5-1.8-1-2.7-1.5c-1.9-1.2-3.9-2.2-6-3
		c-1.3-0.3-2.7-0.4-4-0.4c-0.7,0-1.5,0-2.2,0c-5.9-0.4-11.8-0.2-17.6,0.6c-1.2,0.3-2.5,0.1-3.7-0.5c-0.5-0.3-0.8-0.8-0.8-1.4
		c-0.1-0.8,0.2-1.6,0.8-2.1l-1.8,0.5c-0.9,0.3-1.8,0.4-2.7,0.2c-0.6-0.2-1.1-0.6-1.4-1.2c-0.2-0.4-0.2-1,0-1.4
		c-1.1,0.3-2.1,0.5-3.2,0.7c-0.9,0.2-1.9,0.1-2.8-0.5c-0.4-0.3-0.6-0.8-0.5-1.2c0.1-1.1,1.1-1.6,1.6-1.8l0.8-0.4l-4.8,0.8
		c-0.9,0.2-1.7,0.1-2.5-0.4c-0.3-0.2-0.6-0.6-0.6-1c-0.1-0.6,0-1.6,2-2.3c5-1.9,10.1-3.2,15.3-4.1c-0.9-0.2-1.8-0.4-2.7-0.7
		c-1-0.3-1.8-1-2.1-2c-0.1-0.5,0.1-1,0.5-1.3c0.3-0.2,0.7-0.4,1.1-0.4c7.1-1,14.3-0.8,21.3,0.8c5,1.1,9,3,13.3,5.1l1.8,0.9
		c6.5,3.1,13.9,5,20.2,6.5c0.3,0.1,0.6,0.4,0.5,0.8c-0.1,0.3-0.4,0.6-0.8,0.5c-6.4-1.5-13.9-3.4-20.5-6.6l-1.8-0.9
		c-4.2-2-8.2-3.9-13-5c-6.9-1.5-13.9-1.8-20.9-0.8c-0.2,0-0.3,0.1-0.5,0.1c0,0.4,0.6,0.9,1.2,1.1c2.7,0.8,5.4,1.2,8.2,1.1l0,0
		c0.4,0,0.6,0.3,0.6,0.7c0,0.3-0.2,0.5-0.5,0.6c-7.1,0.7-14.1,2.3-20.8,4.8c-0.6,0.2-1.2,0.6-1.1,0.9c0,0.1,0.1,0.2,0.1,0.2
		c0.5,0.2,1,0.3,1.6,0.1l12.9-2.2c1.3-0.3,2.5-0.5,3.8-0.6c0.4,0,0.6,0.3,0.7,0.6c0,0.3-0.2,0.6-0.5,0.6l-3.7,0.6
		c-2.9,0.6-5.7,1.6-8.3,2.9c-0.7,0.3-0.8,0.6-0.9,0.7c0,0.1,0,0.2,0.1,0.2c0.5,0.3,1.1,0.3,1.7,0.2c5.1-1,10.1-2.5,14.9-4.4
		c0.3-0.1,0.7,0,0.8,0.4s0,0.7-0.4,0.8l-10.7,4.4c0,0.1,0,0.1,0.1,0.2c0.1,0.3,0.3,0.4,0.6,0.5c0.7,0.1,1.4,0.1,2-0.2l11.8-3.2
		c0.3-0.1,0.7,0.1,0.8,0.4c0.1,0.3-0.1,0.7-0.4,0.8l-7.6,2.8c-0.7,0.2-2.2,0.9-2,1.8c0,0.2,0.1,0.4,0.3,0.5c0.8,0.4,1.8,0.5,2.7,0.3
		c5.9-0.9,11.8-1.1,17.8-0.7c0.7,0,1.4,0,2.1,0c1.5-0.1,3,0,4.4,0.4c2.2,0.8,4.3,1.8,6.2,3.1c0.9,0.5,1.8,1,2.6,1.5
		c4.3,2.3,8.7,4.6,13,6.9c0.3,0.2,0.4,0.5,0.3,0.9C272.6,277.7,272.4,277.9,272.1,277.9L272.1,277.9z"></path><path class="st2" d="M260.3,188c-2.9,1.7-18.4,36.6-25.2,53.3"></path><path class="st1" d="M235.1,242c-0.1,0-0.2,0-0.2,0c-0.3-0.1-0.5-0.5-0.4-0.8c0,0,0,0,0,0c6.1-15.2,22.1-51.7,25.4-53.6
		c0.3-0.2,0.7-0.1,0.9,0.2c0.2,0.3,0.1,0.7-0.2,0.9c-2.5,1.4-17.3,34.1-24.9,53C235.6,241.9,235.4,242,235.1,242L235.1,242z"></path><polygon class="st2" points="149.5,255.2 148.6,262.4 239.4,301.5 239.7,294 	"></polygon><path class="st1" d="M239.4,302.2c-0.1,0-0.2,0-0.3-0.1L148.4,263c-0.3-0.1-0.5-0.4-0.4-0.7l0.8-7.1c0-0.2,0.2-0.4,0.3-0.5
		c0.2-0.1,0.4-0.1,0.6,0l90.3,38.7c0.3,0.1,0.4,0.4,0.4,0.7l-0.3,7.5C240.1,301.9,239.8,302.2,239.4,302.2L239.4,302.2z
		 M149.4,261.9l89.4,38.5l0.2-6l-89-38.2L149.4,261.9z"></path><path class="st2" d="M149.5,255.2c0,0,26.4-12.7,27.1-12.3s94.2,37.8,94.2,37.8L239.7,294L149.5,255.2L149.5,255.2z"></path><path class="st1" d="M239.7,294.7c-0.1,0-0.2,0-0.3-0.1l-90.3-38.7c-0.3-0.1-0.4-0.4-0.4-0.6c0-0.3,0.2-0.5,0.4-0.6
		c26.8-12.9,27.4-12.5,27.8-12.3c1.4,0.6,93.2,37.4,94.1,37.8c0.3,0.1,0.4,0.4,0.4,0.6c0,0.3-0.2,0.5-0.4,0.6L240,294.6
		C239.9,294.6,239.8,294.7,239.7,294.7L239.7,294.7z M151.1,255.2l88.6,38l29.3-12.5c-14.4-5.8-87.9-35.2-92.5-37.1
		C174.7,244.1,160.7,250.6,151.1,255.2L151.1,255.2z"></path><polygon class="st2" points="239.4,301.5 269.6,287.4 270.8,280.7 239.7,294 	"></polygon><path class="st1" d="M239.4,302.2c-0.1,0-0.3,0-0.4-0.1c-0.2-0.1-0.3-0.4-0.3-0.6l0.2-7.4c0-0.3,0.2-0.5,0.4-0.6l31-13.3
		c0.2-0.1,0.5-0.1,0.7,0.1c0.2,0.2,0.3,0.4,0.3,0.7l-1.2,6.7c0,0.2-0.2,0.4-0.4,0.5l-30.2,14C239.6,302.1,239.5,302.2,239.4,302.2
		L239.4,302.2z M240.4,294.5l-0.2,5.9l28.8-13.4l0.9-5.1L240.4,294.5L240.4,294.5z"></path><polygon class="st2" points="149.5,255.2 147.6,189.5 242.6,233.2 239.7,294 	"></polygon><path class="st1" d="M239.7,294.7c-0.1,0-0.2,0-0.3-0.1l-90.3-38.7c-0.2-0.1-0.4-0.3-0.4-0.6l-1.9-65.7c0-0.4,0.3-0.7,0.7-0.7
		c0.1,0,0.2,0,0.3,0.1l95.1,43.6c0.3,0.1,0.4,0.4,0.4,0.7l-2.9,60.8c0,0.2-0.1,0.4-0.3,0.6C240,294.6,239.9,294.7,239.7,294.7
		L239.7,294.7z M150.1,254.8l88.9,38.2l2.8-59.3l-93.6-43L150.1,254.8L150.1,254.8z"></path><path class="st1" d="M290.3,290.6c-0.1,0-0.2,0-0.3-0.1l-19.2-8.9c-0.3-0.1-0.5-0.5-0.4-0.8l5.8-24.3c0.1-0.3,0.4-0.6,0.8-0.5
		l37.6,6l-1.2-59.6c0-0.4,0.3-0.7,0.7-0.7c0,0,0,0,0,0c0.4,0,0.7,0.3,0.7,0.6c0,0,0,0,0,0l1.2,60.4c0,0.2-0.1,0.4-0.2,0.5
		c-0.2,0.1-0.4,0.2-0.6,0.2l-37.8-6l-5.5,23.1l18.7,8.6c0.4,0.2,0.5,0.6,0.4,0.9C290.8,290.4,290.6,290.6,290.3,290.6L290.3,290.6z"></path><path class="st2" d="M123.8,340.8c-3.3-2.5-7.2-3.8-9.9,0H123.8z"></path><path class="st1" d="M123.8,341.5h-9.9c-0.4,0-0.6-0.3-0.6-0.6c0-0.1,0-0.2,0.1-0.4c0.9-1.4,2.3-2.3,3.9-2.6c2-0.3,4.4,0.5,6.9,2.4
		c0.2,0.2,0.3,0.5,0.2,0.7C124.3,341.3,124,341.5,123.8,341.5L123.8,341.5z M115.3,340.2h6.4c-1.3-0.8-2.7-1.1-4.2-1
		C116.6,339.3,115.9,339.6,115.3,340.2L115.3,340.2z"></path><path class="st2" d="M195.3,319.8h-0.1c-0.4-0.1-0.6-0.4-0.6-0.8c0,0,0,0,0,0c0.1-0.7,2.9-17.1,8-25.5c0.2-0.3,0.7-0.4,1-0.2
		c0.3,0.2,0.4,0.6,0.2,0.9c-5,8.1-7.8,24.8-7.8,25C195.9,319.6,195.6,319.8,195.3,319.8L195.3,319.8z"></path><polygon class="st1" points="281.8,197.8 283.2,202.6 265.4,239.3 270.5,252.5 281.6,242.9 286.2,202.5 288.5,200.1 286.1,196 	"></polygon></g><g id="Big_Envelope_Back-2"><polygon class="st2" points="399.4,230.2 399.4,399.3 87.2,399.3 87.2,230.2 243.3,336.5 	"></polygon><path class="st1" d="M399.4,400H87.2c-0.4,0-0.7-0.3-0.7-0.7l0,0V230.2c0-0.4,0.3-0.7,0.7-0.7c0.1,0,0.3,0,0.4,0.1l155.7,106
		l155.7-106c0.3-0.2,0.8-0.1,1,0.2c0.1,0.1,0.1,0.3,0.1,0.4v169.1C400.1,399.7,399.8,400,399.4,400L399.4,400L399.4,400z
		 M87.9,398.6h310.8v-167l-155,105.6c-0.2,0.2-0.6,0.2-0.8,0l-155-105.6L87.9,398.6L87.9,398.6z"></path><polygon class="st2" points="87.2,399.3 243.3,302 399.4,399.3 	"></polygon><path class="st1" d="M399.4,400H87.2c-0.3,0-0.6-0.2-0.7-0.5c-0.1-0.3,0-0.6,0.3-0.8l156.1-97.3c0.2-0.1,0.5-0.1,0.7,0l156.1,97.3
		c0.3,0.2,0.4,0.5,0.3,0.8C400,399.8,399.7,400,399.4,400L399.4,400z M89.7,398.6h307.3l-153.6-95.8L89.7,398.6z"></path></g><g id="Small_Envelopes"><rect class="st3" x="327.5" y="325.7" transform="matrix(0.9688 -0.2477 0.2477 0.9688 -75.2417 103.2011)" width="90.1" height="49.9"></rect><path class="st1" d="M335.1,386.7c-0.1,0-0.3,0-0.4-0.1c-0.2-0.1-0.3-0.2-0.3-0.4l-12.4-48.4c-0.1-0.4,0.1-0.8,0.5-0.9l87.3-22.3
		c0.2,0,0.4,0,0.5,0.1c0.2,0.1,0.3,0.2,0.3,0.4l12.3,48.4c0.1,0.4-0.1,0.8-0.5,0.9l-87.3,22.3L335.1,386.7L335.1,386.7z
		 M323.6,338.1l12,47l85.9-22l-12-47L323.6,338.1z"></path><polygon class="st3" points="335.1,386 371.8,347.7 422.4,363.7 	"></polygon><path class="st1" d="M335.1,386.7c-0.2,0-0.5-0.1-0.6-0.4c-0.2-0.3-0.1-0.6,0.1-0.8l36.7-38.3c0.2-0.2,0.5-0.3,0.7-0.2l50.6,16
		c0.4,0.1,0.6,0.5,0.5,0.9c-0.1,0.2-0.3,0.4-0.5,0.5l-87.3,22.3C335.2,386.7,335.2,386.7,335.1,386.7L335.1,386.7z M372,348.5
		l-34.7,36.2l82.5-21.1L372,348.5z"></path><polygon class="st3" points="322.8,337.6 373.9,356 410,315.3 	"></polygon><path class="st1" d="M373.9,356.7c-0.1,0-0.2,0-0.2,0l-51.2-18.4c-0.3-0.1-0.5-0.4-0.5-0.7c0-0.3,0.2-0.6,0.5-0.6l87.3-22.3
		c0.3-0.1,0.6,0,0.8,0.3c0.2,0.3,0.1,0.6-0.1,0.8l-36.1,40.7C374.3,356.6,374.1,356.7,373.9,356.7L373.9,356.7z M325.1,337.7
		l48.6,17.5l34.3-38.6L325.1,337.7z"></path><rect class="st3" x="409.1" y="275.7" transform="matrix(0.9708 -0.2401 0.2401 0.9708 -56.8752 112.8371)" width="51.3" height="28.4"></rect><path class="st1" d="M413.3,310.5c-0.3,0-0.6-0.2-0.7-0.5l-6.8-27.6c-0.1-0.4,0.1-0.8,0.5-0.9l49.8-12.3c0.2,0,0.4,0,0.5,0.1
		c0.2,0.1,0.3,0.3,0.3,0.4l6.8,27.6c0.1,0.4-0.1,0.8-0.5,0.9l-49.8,12.3L413.3,310.5L413.3,310.5z M407.3,282.7l6.5,26.3l48.4-12
		l-6.5-26.2L407.3,282.7z"></path><polygon class="st3" points="413.3,309.8 434.3,288.2 463,297.5 	"></polygon><path class="st1" d="M413.3,310.5c-0.3,0-0.5-0.1-0.6-0.4c-0.2-0.3-0.1-0.6,0.1-0.8l21.1-21.6c0.2-0.2,0.5-0.3,0.7-0.2l28.7,9.3
		c0.4,0.1,0.6,0.5,0.5,0.9c-0.1,0.2-0.2,0.4-0.5,0.5l-49.8,12.3L413.3,310.5L413.3,310.5z M434.5,289l-19,19.6l45-11.1L434.5,289z"></path><polygon class="st3" points="406.4,282.2 435.5,292.9 456.2,269.9 	"></polygon><path class="st1" d="M435.5,293.6c-0.1,0-0.2,0-0.2,0l-29.1-10.7c-0.3-0.1-0.5-0.4-0.5-0.7c0-0.3,0.2-0.6,0.5-0.6l49.8-12.3
		c0.3-0.1,0.6,0.1,0.8,0.3c0.2,0.3,0.1,0.6-0.1,0.8l-20.7,23C435.9,293.6,435.7,293.7,435.5,293.6L435.5,293.6z M408.8,282.4
		l26.5,9.8l18.9-21L408.8,282.4L408.8,282.4z"></path><rect class="st3" x="344.4" y="271" transform="matrix(0.9127 -0.4086 0.4086 0.9127 -83.7956 174.5991)" width="44.7" height="24.8"></rect><path class="st1" d="M351.4,304.5c-0.3,0-0.5-0.2-0.6-0.4l-10.1-22.6c-0.1-0.2-0.1-0.4,0-0.5c0.1-0.2,0.2-0.3,0.4-0.4l40.8-18.3
		c0.3-0.2,0.8,0,0.9,0.3c0,0,0,0,0,0l10.1,22.6c0.1,0.2,0.1,0.4,0,0.5c-0.1,0.2-0.2,0.3-0.4,0.4l-40.8,18.3
		C351.5,304.5,351.4,304.5,351.4,304.5L351.4,304.5z M342.2,281.5l9.6,21.3l39.5-17.7l-9.6-21.3L342.2,281.5z"></path><polygon class="st3" points="351.4,303.8 366.1,282 392.2,285.6 	"></polygon><path class="st1" d="M351.4,304.5c-0.2,0-0.4-0.1-0.5-0.2c-0.2-0.2-0.2-0.6,0-0.8l14.7-21.8c0.1-0.2,0.4-0.3,0.7-0.3l26.1,3.5
		c0.4,0.1,0.6,0.4,0.6,0.8c0,0.2-0.2,0.4-0.4,0.5l-40.8,18.3C351.6,304.5,351.5,304.5,351.4,304.5L351.4,304.5z M366.4,282.8
		l-13.1,19.4l36.3-16.3L366.4,282.8L366.4,282.8z"></path><polygon class="st3" points="341.2,281.2 367.8,285.9 382,263 	"></polygon><path class="st1" d="M367.8,286.6h-0.1l-26.6-4.7c-0.3-0.1-0.5-0.3-0.6-0.6c0-0.3,0.1-0.6,0.4-0.7l40.8-18.3
		c0.3-0.1,0.6-0.1,0.8,0.2c0.2,0.2,0.2,0.6,0.1,0.8l-14.2,23C368.3,286.5,368.1,286.6,367.8,286.6L367.8,286.6z M343.6,280.9
		l23.9,4.2l12.8-20.6L343.6,280.9L343.6,280.9z"></path></g><g id="Sent_Notification"><path class="st2" d="M203,100.7h-82.1c-5.4,0-9.7,4.3-9.7,9.7v42c0,5.4,4.3,9.7,9.7,9.7h73l8.7,14.9l0.1-14.9h0.2
		c5.4,0,9.7-4.3,9.7-9.7v-42C212.7,105,208.4,100.7,203,100.7L203,100.7z"></path><path class="st1" d="M202.6,177.7c-0.2,0-0.5-0.1-0.6-0.4l-8.5-14.6h-72.6c-5.7,0-10.4-4.7-10.4-10.4v-42c0-5.7,4.7-10.4,10.4-10.4
		H203c5.7,0,10.4,4.7,10.4,10.4v42c0,5.6-4.4,10.2-10,10.4l-0.1,14.2c0,0.3-0.2,0.6-0.5,0.7C202.7,177.7,202.7,177.7,202.6,177.7
		L202.6,177.7z M120.9,101.4c-5,0-9,4-9,9v42c0,5,4,9,9,9h73c0.2,0,0.5,0.1,0.6,0.4l7.5,12.7l0.1-12.4c0-0.4,0.3-0.7,0.7-0.7h0.2
		c5,0,9-4,9-9v-42c0-5-4-9-9-9L120.9,101.4L120.9,101.4z"></path><polygon class="st1" points="148.4,133.6 185.2,111.1 154,124.1 	"></polygon><path class="st1" d="M148.4,134.3c-0.2,0-0.4-0.1-0.5-0.2c-0.2-0.2-0.3-0.6-0.1-0.9l5.6-9.5c0.1-0.1,0.2-0.2,0.3-0.3l31.2-13
		c0.3-0.1,0.7,0,0.9,0.3c0.2,0.3,0.1,0.7-0.3,0.9l-36.8,22.5C148.7,134.2,148.5,134.3,148.4,134.3L148.4,134.3z M154.5,124.6
		l-4.1,6.9l26.7-16.3L154.5,124.6L154.5,124.6z"></path><polygon class="st3" points="154,124.1 166.1,130.2 185.2,111.1 	"></polygon><path class="st1" d="M166.1,130.8c-0.1,0-0.2,0-0.3-0.1l-12-6.2c-0.2-0.1-0.4-0.3-0.4-0.6c0-0.3,0.2-0.5,0.4-0.6l31.2-13
		c0.3-0.1,0.7,0.1,0.8,0.4c0.1,0.2,0,0.4-0.1,0.6l-19.1,19.1C166.4,130.7,166.2,130.8,166.1,130.8z M155.6,124.1l10.4,5.3l16.5-16.5
		L155.6,124.1z"></path><polygon class="st3" points="185.2,111.1 145.6,120.5 136.6,115.4 	"></polygon><path class="st1" d="M145.6,121.2c-0.1,0-0.2,0-0.3-0.1l-9-5.2c-0.2-0.1-0.4-0.4-0.3-0.7c0.1-0.3,0.3-0.5,0.6-0.5l48.6-4.3
		c0.3,0,0.6,0.2,0.7,0.5c0.1,0.3-0.2,0.6-0.5,0.7l-39.6,9.5L145.6,121.2L145.6,121.2z M138.7,115.8l7,4l30.9-7.4L138.7,115.8
		L138.7,115.8z"></path><polygon class="st3" points="145.6,120.5 148.4,133.6 154,124.1 185.2,111.1 	"></polygon><path class="st1" d="M148.4,134.2h-0.1c-0.3,0-0.5-0.2-0.5-0.5l-2.8-13c-0.1-0.3,0.1-0.7,0.5-0.8l39.6-9.5c0.3-0.1,0.7,0.1,0.8,0.4
		c0.1,0.3-0.1,0.7-0.4,0.8l-31,12.9l-5.4,9.3C148.9,134.1,148.7,134.2,148.4,134.2L148.4,134.2z M146.4,121l2.3,10.8l4.8-8.1
		c0.1-0.1,0.2-0.2,0.3-0.3l23.8-9.9L146.4,121L146.4,121z"></path><g><g><path class="st1" d="M144.4,150.8c0.9,0.5,1.8,0.8,2.9,0.8c1.6,0,2.6-0.9,2.6-2.1s-0.7-1.8-2.3-2.4c-2-0.7-3.3-1.8-3.3-3.5
				c0-1.9,1.6-3.3,4-3.3c0.9,0,1.9,0.2,2.7,0.6l-0.4,1.3c-0.7-0.4-1.5-0.6-2.3-0.6c-1.7,0-2.3,1-2.3,1.9c0,1.1,0.8,1.7,2.4,2.4
				c2.1,0.8,3.1,1.8,3.1,3.6s-1.4,3.5-4.3,3.5c-1.1,0-2.2-0.3-3.1-0.8L144.4,150.8z"></path></g><path class="st1" d="M154.6,148.6c-0.1,1.6,1,2.9,2.6,3.1c0.1,0,0.3,0,0.4,0c0.8,0,1.7-0.1,2.4-0.5l0.3,1.1
			c-0.9,0.4-1.9,0.6-2.9,0.6c-2.3,0.1-4.2-1.6-4.4-3.8c0-0.2,0-0.4,0-0.6c0-2.7,1.6-4.8,4.1-4.8c2.9,0,3.7,2.5,3.7,4.2
			c0,0.3,0,0.6,0,0.8L154.6,148.6z M159.3,147.5c0-1-0.4-2.6-2.2-2.6c-1.4,0.1-2.4,1.2-2.5,2.6H159.3z"></path><g><path class="st1" d="M162.8,146.3c0-0.9,0-1.7-0.1-2.4h1.4l0.1,1.5l0,0c0.6-1.1,1.7-1.7,2.9-1.7c1.2,0,3.1,0.7,3.1,3.8v5.3h-1.6
				v-5.1c0-1.4-0.5-2.6-2.1-2.6c-1,0-1.9,0.7-2.2,1.6c-0.1,0.2-0.1,0.5-0.1,0.8v5.3h-1.6L162.8,146.3z"></path></g><g><path class="st1" d="M174.8,141.4v2.5h2.3v1.2h-2.3v4.8c0,1.1,0.3,1.7,1.2,1.7c0.3,0,0.6,0,0.9-0.1l0.1,1.2
				c-0.5,0.2-0.9,0.2-1.4,0.2c-0.6,0-1.3-0.2-1.7-0.7c-0.5-0.7-0.7-1.5-0.6-2.3v-4.8h-1.4v-1.2h1.4v-2.1L174.8,141.4z"></path></g></g></g><path class="st0" id="Dashed_Line" d="M197.3,382.8c-0.4,0-0.7-0.3-0.7-0.7c0-0.4,0.3-0.7,0.7-0.7c1.9,0,3.7-0.1,5.6-0.1
	c0.4,0,0.7,0.3,0.7,0.6c0,0,0,0,0,0c0,0.4-0.3,0.7-0.7,0.7c0,0,0,0,0,0C201.1,382.7,199.2,382.8,197.3,382.8L197.3,382.8z
	 M191.7,382.8L191.7,382.8c-1.9,0-3.8-0.1-5.6-0.1c-0.4,0-0.7-0.3-0.7-0.7c0,0,0,0,0,0c0-0.4,0.3-0.7,0.7-0.7c0,0,0,0,0,0
	c1.9,0.1,3.7,0.1,5.6,0.1c0.4,0,0.7,0.3,0.7,0.7c0,0,0,0,0,0C192.4,382.5,192.1,382.8,191.7,382.8L191.7,382.8z M208.5,382.4
	c-0.4,0-0.7-0.3-0.7-0.7c0-0.4,0.3-0.7,0.7-0.7c1.9-0.1,3.7-0.2,5.6-0.4c0.4-0.1,0.7,0.2,0.8,0.6c0.1,0.4-0.2,0.7-0.6,0.8
	c0,0-0.1,0-0.1,0C212.3,382.2,210.5,382.3,208.5,382.4L208.5,382.4L208.5,382.4z M180.5,382.4L180.5,382.4c-1.9-0.1-3.7-0.2-5.6-0.4
	c-0.4,0-0.7-0.4-0.6-0.8c0-0.4,0.4-0.7,0.8-0.6c1.9,0.1,3.7,0.3,5.6,0.4c0.4,0,0.7,0.3,0.7,0.7C181.3,382.1,181,382.4,180.5,382.4
	L180.5,382.4z M219.7,381.5c-0.4,0-0.7-0.3-0.7-0.7c0-0.4,0.3-0.7,0.7-0.7c1.8-0.2,3.7-0.4,5.6-0.6c0.4,0,0.7,0.2,0.8,0.6
	c0,0.4-0.2,0.7-0.6,0.8l0,0C223.5,381.1,221.6,381.3,219.7,381.5L219.7,381.5z M169.4,381.5L169.4,381.5c-1.9-0.2-3.8-0.4-5.7-0.7
	c-0.4-0.1-0.7-0.4-0.6-0.8s0.4-0.7,0.8-0.6c1.8,0.2,3.7,0.5,5.5,0.7c0.4,0,0.7,0.4,0.7,0.7C170.1,381.2,169.8,381.5,169.4,381.5
	L169.4,381.5z M230.8,380.2c-0.3,0-0.6-0.3-0.7-0.6c-0.1-0.4,0.2-0.7,0.6-0.8c1.8-0.3,3.7-0.6,5.5-0.9c0.4-0.1,0.7,0.2,0.8,0.6
	c0.1,0.4-0.2,0.7-0.6,0.8c-1.8,0.3-3.7,0.6-5.6,0.9L230.8,380.2L230.8,380.2z M158.3,380h-0.1c-1.9-0.3-3.7-0.6-5.5-1
	c-0.4-0.1-0.6-0.4-0.6-0.8c0.1-0.4,0.4-0.6,0.8-0.6c1.8,0.3,3.6,0.7,5.5,1c0.4,0.1,0.6,0.4,0.6,0.8C158.9,379.8,158.6,380,158.3,380
	L158.3,380z M241.9,378.2c-0.3,0-0.6-0.2-0.7-0.6c-0.1-0.4,0.2-0.7,0.6-0.8c1.8-0.4,3.7-0.7,5.5-1.1c0.4-0.1,0.8,0.1,0.9,0.4
	s-0.1,0.8-0.4,0.9c0,0-0.1,0-0.1,0c-1.8,0.4-3.7,0.8-5.5,1.1L241.9,378.2L241.9,378.2z M147.3,378c0,0-0.1,0-0.1,0
	c-1.8-0.4-3.7-0.8-5.5-1.2c-0.4-0.1-0.6-0.5-0.5-0.8c0,0,0,0,0,0c0.1-0.4,0.5-0.6,0.8-0.5c0,0,0,0,0,0c1.8,0.4,3.6,0.9,5.4,1.2
	c0.4,0.1,0.6,0.5,0.5,0.8C147.9,377.8,147.6,378,147.3,378L147.3,378z M252.8,375.9c-0.3,0-0.6-0.2-0.7-0.5
	c-0.1-0.4,0.1-0.8,0.5-0.9c1.8-0.4,3.6-0.9,5.4-1.4c0.4-0.1,0.8,0.1,0.9,0.5c0.1,0.4-0.1,0.8-0.5,0.9c0,0,0,0,0,0
	c-1.8,0.5-3.6,1-5.4,1.4L252.8,375.9L252.8,375.9z M136.4,375.4c-0.1,0-0.1,0-0.2,0c-1.8-0.5-3.6-1-5.4-1.6
	c-0.4-0.1-0.6-0.5-0.5-0.9c0.1-0.4,0.5-0.6,0.9-0.5l0,0c1.8,0.5,3.6,1.1,5.4,1.6c0.4,0.1,0.6,0.5,0.5,0.9
	C137,375.2,136.7,375.4,136.4,375.4L136.4,375.4z M263.6,373c-0.4,0-0.7-0.3-0.7-0.7c0-0.3,0.2-0.6,0.5-0.7c1.8-0.5,3.6-1.1,5.3-1.6
	c0.4-0.1,0.8,0,0.9,0.4c0.1,0.4,0,0.8-0.4,0.9c0,0,0,0-0.1,0c-1.8,0.6-3.6,1.1-5.4,1.7C263.7,372.9,263.7,372.9,263.6,373L263.6,373
	z M125.7,372c-0.1,0-0.2,0-0.2,0c-1.8-0.6-3.5-1.2-5.3-1.9c-0.4-0.2-0.5-0.6-0.4-0.9c0.1-0.3,0.5-0.5,0.9-0.4
	c1.7,0.7,3.5,1.3,5.2,1.9c0.4,0.1,0.6,0.5,0.4,0.9c0,0,0,0,0,0C126.3,371.9,126,372,125.7,372L125.7,372z M274.3,369.5
	c-0.4,0-0.7-0.3-0.7-0.7c0-0.3,0.2-0.6,0.5-0.7c1.8-0.6,3.5-1.3,5.2-1.9c0.4-0.2,0.8,0,0.9,0.4c0.2,0.4,0,0.8-0.4,0.9c0,0,0,0-0.1,0
	c-1.7,0.7-3.5,1.3-5.3,1.9C274.4,369.4,274.4,369.4,274.3,369.5L274.3,369.5z M115.3,368c-0.1,0-0.2,0-0.3,0
	c-1.7-0.7-3.5-1.5-5.1-2.2c-0.4-0.2-0.5-0.6-0.3-0.9c0.2-0.3,0.6-0.5,0.9-0.4c1.7,0.8,3.4,1.5,5.1,2.2c0.4,0.1,0.5,0.6,0.4,0.9
	c0,0,0,0,0,0C115.8,367.9,115.6,368.1,115.3,368L115.3,368z M284.8,365.5c-0.3,0-0.5-0.2-0.6-0.4c-0.1-0.4,0-0.8,0.4-0.9
	c0,0,0,0,0,0c1.7-0.7,3.4-1.4,5.1-2.2c0.4-0.1,0.8,0.1,0.9,0.4c0.1,0.3,0,0.7-0.3,0.8c-1.7,0.8-3.4,1.5-5.2,2.2
	C284.9,365.4,284.8,365.5,284.8,365.5L284.8,365.5z M105.1,363.4c-0.1,0-0.2,0-0.3-0.1c-1.7-0.8-3.3-1.7-5-2.6
	c-0.3-0.2-0.5-0.6-0.3-1s0.6-0.5,1-0.3c1.6,0.9,3.3,1.8,4.9,2.6c0.3,0.2,0.5,0.6,0.3,0.9C105.6,363.2,105.3,363.4,105.1,363.4
	L105.1,363.4z M295,360.9c-0.3,0-0.5-0.2-0.6-0.4c-0.2-0.3,0-0.8,0.3-0.9c0,0,0,0,0,0c1.7-0.8,3.4-1.6,5-2.5c0.4-0.1,0.8,0,0.9,0.4
	c0.1,0.3,0,0.7-0.3,0.9c-1.7,0.9-3.3,1.7-5,2.5C295.2,360.9,295.1,360.9,295,360.9L295,360.9z M95.3,358c-0.1,0-0.3,0-0.4-0.1
	c-1.6-1-3.2-2-4.8-3c-0.3-0.2-0.4-0.6-0.2-1c0.2-0.3,0.6-0.4,1-0.2l0,0c1.5,1,3.1,2,4.7,3c0.3,0.2,0.5,0.6,0.3,1c0,0,0,0,0,0
	C95.8,357.9,95.6,358.1,95.3,358L95.3,358z M304.9,355.8c-0.4,0-0.7-0.3-0.7-0.7c0-0.3,0.1-0.5,0.4-0.6c1.6-0.9,3.2-1.8,4.8-2.8
	c0.3-0.2,0.8-0.1,1,0.2s0.1,0.8-0.2,1c0,0,0,0,0,0c-1.6,1-3.2,1.9-4.9,2.8C305.2,355.7,305.1,355.8,304.9,355.8L304.9,355.8z
	 M86,351.8c-0.1,0-0.3,0-0.4-0.1c-1.5-1.1-3-2.2-4.5-3.4c-0.3-0.3-0.3-0.7,0-1c0.2-0.2,0.6-0.3,0.9-0.1c1.4,1.1,2.9,2.3,4.4,3.4
	c0.3,0.2,0.4,0.7,0.2,1c0,0,0,0,0,0C86.4,351.8,86.2,351.9,86,351.8L86,351.8z M77.2,344.9c-0.2,0-0.3-0.1-0.5-0.2
	c-1.3-1.1-2.5-2.2-3.7-3.4l-0.4-0.4c-0.3-0.3-0.3-0.7,0-1s0.7-0.3,1,0l0,0l0.4,0.4c1.2,1.1,2.4,2.2,3.7,3.3c0.3,0.3,0.3,0.7,0.1,1
	C77.7,344.8,77.5,344.9,77.2,344.9L77.2,344.9z M69.1,337.2c-0.2,0-0.4-0.1-0.5-0.2c-1.3-1.4-2.6-2.7-3.8-4.1
	c-0.3-0.2-0.4-0.7-0.2-1c0.2-0.3,0.7-0.4,1-0.2c0.1,0.1,0.1,0.1,0.2,0.2c1.2,1.4,2.5,2.7,3.8,4.1c0.3,0.3,0.3,0.7,0,1
	C69.4,337.1,69.3,337.2,69.1,337.2L69.1,337.2z M61.6,328.8c-0.2,0-0.4-0.1-0.5-0.2c-1.2-1.5-2.4-2.9-3.5-4.4
	c-0.2-0.3-0.2-0.7,0.1-1c0.3-0.2,0.7-0.2,1,0.1c1.1,1.5,2.3,2.9,3.5,4.4c0.2,0.3,0.2,0.7-0.1,1c0,0,0,0,0,0
	C62,328.8,61.8,328.9,61.6,328.8L61.6,328.8z M54.9,319.9c-0.2,0-0.4-0.1-0.6-0.3c-1.1-1.6-2.1-3.1-3.1-4.7c-0.2-0.3-0.2-0.8,0.2-1
	c0.3-0.2,0.8-0.2,1,0.2c0,0,0,0.1,0.1,0.1c1,1.6,2,3.1,3,4.7c0.2,0.3,0.2,0.7-0.1,1c0,0,0,0,0,0C55.1,319.9,55,319.9,54.9,319.9
	L54.9,319.9z M49,310.4c-0.3,0-0.5-0.1-0.6-0.4c-0.9-1.6-1.8-3.3-2.6-5c-0.1-0.4,0-0.8,0.4-0.9c0.3-0.1,0.7,0,0.9,0.3
	c0.8,1.6,1.7,3.3,2.5,5c0.2,0.4,0,0.8-0.4,0.9C49.2,310.3,49.1,310.3,49,310.4L49,310.4z M44.1,300.3c-0.3,0-0.5-0.2-0.7-0.4
	c-0.7-1.7-1.4-3.5-2-5.3c-0.1-0.4,0.1-0.8,0.5-0.9c0.3-0.1,0.7,0.1,0.8,0.4c0.6,1.7,1.3,3.5,2,5.2c0.2,0.4,0,0.8-0.4,0.9
	c0,0,0,0,0,0C44.3,300.2,44.2,300.2,44.1,300.3L44.1,300.3z M40.4,289.7c-0.3,0-0.6-0.2-0.7-0.5c-0.5-1.8-1-3.6-1.4-5.5
	c-0.1-0.4,0.2-0.8,0.5-0.8c0.4-0.1,0.8,0.2,0.8,0.5l0,0c0.4,1.8,0.9,3.6,1.4,5.4c0.1,0.4-0.1,0.8-0.5,0.9
	C40.6,289.7,40.5,289.7,40.4,289.7L40.4,289.7z M38,278.8c-0.3,0-0.6-0.2-0.7-0.6c-0.3-1.9-0.5-3.7-0.7-5.6
	c-0.1-0.4,0.2-0.7,0.6-0.8c0.4-0.1,0.7,0.2,0.8,0.6c0,0,0,0.1,0,0.1c0.2,1.8,0.4,3.7,0.7,5.5c0.1,0.4-0.2,0.7-0.6,0.8L38,278.8
	L38,278.8z M36.9,267.6c-0.4,0-0.7-0.3-0.7-0.7c0-0.9,0-1.9,0-2.8s0-1.9,0-2.9c0-0.4,0.3-0.7,0.7-0.7s0.7,0.3,0.7,0.7
	c0,0.9,0,1.9,0,2.8s0,1.8,0,2.7C37.6,267.3,37.3,267.6,36.9,267.6C36.9,267.6,36.9,267.6,36.9,267.6L36.9,267.6L36.9,267.6z
	 M37.3,256.5L37.3,256.5c-0.5,0-0.7-0.4-0.7-0.8c0.2-1.9,0.5-3.8,0.8-5.6c0.1-0.4,0.4-0.6,0.8-0.6c0,0,0,0,0,0
	c0.4,0.1,0.6,0.4,0.6,0.8c0,0,0,0,0,0c-0.3,1.8-0.6,3.7-0.8,5.5C38,256.2,37.7,256.5,37.3,256.5L37.3,256.5z M39.2,245.5
	c-0.1,0-0.1,0-0.2,0c-0.4-0.1-0.6-0.5-0.5-0.8c0,0,0,0,0,0c0.5-1.8,1-3.7,1.5-5.4c0.1-0.4,0.5-0.5,0.9-0.4c0.3,0.1,0.5,0.5,0.4,0.8
	c-0.6,1.8-1.1,3.5-1.5,5.3C39.8,245.3,39.5,245.5,39.2,245.5L39.2,245.5z M42.6,234.8c-0.1,0-0.2,0-0.3,0c-0.4-0.1-0.5-0.6-0.4-0.9
	c0,0,0,0,0,0c0.7-1.8,1.5-3.5,2.3-5.2c0.2-0.3,0.6-0.5,0.9-0.3c0.3,0.2,0.5,0.6,0.3,0.9l0,0c-0.8,1.6-1.6,3.4-2.3,5.1
	C43.2,234.7,42.9,234.9,42.6,234.8L42.6,234.8z M47.5,224.8c-0.1,0-0.2,0-0.3-0.1c-0.3-0.2-0.5-0.6-0.3-0.9c0,0,0,0,0-0.1
	c1-1.6,2-3.2,3-4.8c0.2-0.3,0.6-0.4,1-0.2s0.4,0.6,0.2,1l0,0c-1,1.5-2,3.1-2.9,4.7C48.1,224.6,47.8,224.8,47.5,224.8L47.5,224.8z
	 M53.7,215.5c-0.1,0-0.3,0-0.4-0.1c-0.3-0.2-0.4-0.7-0.2-1c0,0,0,0,0,0c1.1-1.5,2.3-3,3.5-4.4c0.2-0.3,0.7-0.3,1-0.1
	c0.3,0.2,0.3,0.7,0.1,1c-1.2,1.4-2.3,2.9-3.4,4.4C54.1,215.3,53.9,215.4,53.7,215.5L53.7,215.5z M60.8,206.8c-0.4,0-0.7-0.3-0.7-0.7
	c0-0.2,0.1-0.4,0.2-0.5c1.3-1.4,2.6-2.8,3.9-4.1c0.3-0.3,0.7-0.3,1,0c0.3,0.3,0.3,0.7,0,1c0,0,0,0,0,0c-1.3,1.3-2.6,2.6-3.9,4
	C61.2,206.7,61,206.8,60.8,206.8L60.8,206.8z M68.8,199c-0.4,0-0.7-0.3-0.7-0.7c0-0.2,0.1-0.4,0.2-0.5c1.4-1.2,2.9-2.4,4.3-3.6
	c0.3-0.3,0.7-0.2,1,0s0.2,0.7,0,1c0,0-0.1,0-0.1,0.1c-1.4,1.1-2.9,2.3-4.3,3.5C69.2,198.9,69,199,68.8,199L68.8,199z M185.2,196.8
	c-0.3,0-0.5-0.1-0.6-0.4c-0.9-1.6-2-3-3.2-4.4c-0.3-0.2-0.4-0.7-0.2-1c0.2-0.3,0.7-0.4,1-0.2c0.1,0.1,0.1,0.1,0.2,0.2
	c1.3,1.4,2.5,3,3.4,4.6c0.2,0.3,0,0.8-0.3,0.9C185.3,196.7,185.2,196.8,185.2,196.8L185.2,196.8z M77.7,192.1
	c-0.2,0-0.4-0.1-0.6-0.3c-0.2-0.3-0.2-0.7,0.1-1c0,0,0,0,0,0c1.5-1.1,3.1-2.1,4.7-3.1c0.3-0.2,0.8-0.1,1,0.2c0.2,0.3,0.1,0.8-0.2,1
	c0,0,0,0,0,0c-1.6,0.9-3.2,2-4.7,3C77.9,192,77.8,192.1,77.7,192.1L77.7,192.1z M177.8,188.4c-0.2,0-0.3-0.1-0.4-0.2
	c-1.4-1.2-2.9-2.3-4.4-3.3c-0.3-0.2-0.4-0.6-0.2-1c0.2-0.3,0.6-0.4,1-0.2c1.6,1,3.1,2.2,4.6,3.4c0.3,0.2,0.3,0.7,0.1,1c0,0,0,0,0,0
	C178.2,188.3,178,188.4,177.8,188.4L177.8,188.4z M87.2,186.4c-0.3,0-0.5-0.1-0.6-0.4c-0.2-0.3-0.1-0.8,0.3-0.9c0,0,0,0,0,0
	c1.7-0.9,3.4-1.7,5.1-2.5c0.3-0.2,0.8-0.1,1,0.3c0.2,0.3,0.1,0.8-0.3,1c0,0-0.1,0-0.1,0.1c-1.7,0.8-3.4,1.6-5,2.4
	C87.5,186.3,87.4,186.3,87.2,186.4L87.2,186.4z M168.4,182.4c-0.1,0-0.2,0-0.3-0.1c-1.6-0.8-3.3-1.6-5.1-2.2
	c-0.4-0.1-0.6-0.5-0.5-0.9s0.5-0.6,0.9-0.5c0,0,0.1,0,0.1,0.1c1.8,0.7,3.5,1.4,5.2,2.3c0.3,0.2,0.5,0.6,0.3,0.9c0,0,0,0,0,0
	C168.9,182.2,168.6,182.4,168.4,182.4L168.4,182.4z M97.4,181.8c-0.4,0-0.7-0.3-0.7-0.7c0-0.3,0.2-0.5,0.4-0.6
	c1.8-0.7,3.5-1.3,5.3-1.8c0.4-0.1,0.8,0.1,0.9,0.5c0.1,0.4-0.1,0.8-0.5,0.9l0,0c-1.8,0.6-3.5,1.2-5.2,1.8
	C97.6,181.8,97.5,181.8,97.4,181.8L97.4,181.8z M108.1,178.4c-0.4,0-0.7-0.3-0.8-0.7c0-0.4,0.3-0.7,0.7-0.8c1.8-0.4,3.7-0.9,5.5-1.2
	c0.4-0.1,0.7,0.2,0.8,0.5c0,0,0,0,0,0c0.1,0.4-0.2,0.7-0.6,0.8c-1.8,0.4-3.6,0.8-5.4,1.2L108.1,178.4L108.1,178.4z M158,178.3
	c-0.1,0-0.1,0-0.2,0c-1.7-0.5-3.5-0.9-5.4-1.3c-0.4-0.1-0.6-0.4-0.6-0.8s0.4-0.6,0.8-0.6l0,0c1.9,0.4,3.7,0.8,5.5,1.3
	c0.4,0.1,0.6,0.5,0.5,0.8C158.6,178.1,158.3,178.4,158,178.3L158,178.3z M119.1,176.3c-0.3,0-0.6-0.3-0.7-0.6c0-0.4,0.2-0.7,0.6-0.8
	c1.8-0.2,3.7-0.5,5.6-0.6c0.4,0,0.7,0.2,0.8,0.6c0,0,0,0,0,0c0,0.4-0.3,0.7-0.6,0.8C122.9,175.9,121,176.1,119.1,176.3L119.1,176.3z
	 M147,176L147,176c-1.9-0.2-3.7-0.4-5.6-0.6c-0.4,0-0.7-0.4-0.7-0.7c0,0,0,0,0,0c0-0.4,0.4-0.7,0.8-0.6c1.9,0.1,3.8,0.3,5.6,0.6
	c0.4,0.1,0.6,0.4,0.6,0.8C147.7,175.7,147.4,176,147,176L147,176z M130.2,175.3c-0.4,0-0.7-0.3-0.7-0.7c0-0.4,0.3-0.7,0.7-0.7
	c0,0,0,0,0,0c1.9-0.1,3.8-0.1,5.6-0.1c0.4,0,0.7,0.3,0.7,0.7c0,0,0,0,0,0c0,0.4-0.3,0.7-0.7,0.7l0,0
	C134,175.2,132.1,175.2,130.2,175.3L130.2,175.3L130.2,175.3z"></path></svg>